<?xml version="1.0" encoding="utf-8" standalone="no"?>
<!DOCTYPE svg PUBLIC "-//W3C//DTD SVG 1.1//EN"
  "http://www.w3.org/Graphics/SVG/1.1/DTD/svg11.dtd">
<svg xmlns:xlink="http://www.w3.org/1999/xlink" width="432pt" height="288pt" viewBox="0 0 432 288" xmlns="http://www.w3.org/2000/svg" version="1.1">
 <metadata>
  <rdf:RDF xmlns:dc="http://purl.org/dc/elements/1.1/" xmlns:cc="http://creativecommons.org/ns#" xmlns:rdf="http://www.w3.org/1999/02/22-rdf-syntax-ns#">
   <cc:Work>
    <dc:type rdf:resource="http://purl.org/dc/dcmitype/StillImage"/>
    <dc:date>2022-01-27T15:34:53.924361</dc:date>
    <dc:format>image/svg+xml</dc:format>
    <dc:creator>
     <cc:Agent>
      <dc:title>Matplotlib v3.5.1, https://matplotlib.org/</dc:title>
     </cc:Agent>
    </dc:creator>
   </cc:Work>
  </rdf:RDF>
 </metadata>
 <defs>
  <style type="text/css">*{stroke-linejoin: round; stroke-linecap: butt}</style>
 </defs>
 <g id="figure_1">
  <g id="patch_1">
   <path d="M 0 288 
L 432 288 
L 432 0 
L 0 0 
L 0 288 
z
" style="fill: none"/>
  </g>
  <g id="axes_1">
   <g id="patch_2">
    <path d="M 53.735 221.025665 
L 413.06712 221.025665 
L 413.06712 45.996875 
L 53.735 45.996875 
z
" style="fill: #ffffff"/>
   </g>
   <g id="matplotlib.axis_1">
    <g id="xtick_1">
     <g id="line2d_1">
      <path d="M 64.910401 221.025665 
L 64.910401 45.996875 
" clip-path="url(#paf49165812)" style="fill: none; stroke: #b0b0b0; stroke-width: 0.8; stroke-linecap: square"/>
     </g>
     <g id="line2d_2">
      <defs>
       <path id="m4f3a341728" d="M 0 0 
L 0 3.5 
" style="stroke: #000000; stroke-width: 0.8"/>
      </defs>
      <g>
       <use xlink:href="#m4f3a341728" x="64.910401" y="221.025665" style="stroke: #000000; stroke-width: 0.8"/>
      </g>
     </g>
     <g id="text_1">
      <!-- 1820 -->
      <g transform="translate(57.86364 251.394439)rotate(-45)scale(0.1 -0.1)">
       <defs>
        <path id="DejaVuSans-31" d="M 794 531 
L 1825 531 
L 1825 4091 
L 703 3866 
L 703 4441 
L 1819 4666 
L 2450 4666 
L 2450 531 
L 3481 531 
L 3481 0 
L 794 0 
L 794 531 
z
" transform="scale(0.015625)"/>
        <path id="DejaVuSans-38" d="M 2034 2216 
Q 1584 2216 1326 1975 
Q 1069 1734 1069 1313 
Q 1069 891 1326 650 
Q 1584 409 2034 409 
Q 2484 409 2743 651 
Q 3003 894 3003 1313 
Q 3003 1734 2745 1975 
Q 2488 2216 2034 2216 
z
M 1403 2484 
Q 997 2584 770 2862 
Q 544 3141 544 3541 
Q 544 4100 942 4425 
Q 1341 4750 2034 4750 
Q 2731 4750 3128 4425 
Q 3525 4100 3525 3541 
Q 3525 3141 3298 2862 
Q 3072 2584 2669 2484 
Q 3125 2378 3379 2068 
Q 3634 1759 3634 1313 
Q 3634 634 3220 271 
Q 2806 -91 2034 -91 
Q 1263 -91 848 271 
Q 434 634 434 1313 
Q 434 1759 690 2068 
Q 947 2378 1403 2484 
z
M 1172 3481 
Q 1172 3119 1398 2916 
Q 1625 2713 2034 2713 
Q 2441 2713 2670 2916 
Q 2900 3119 2900 3481 
Q 2900 3844 2670 4047 
Q 2441 4250 2034 4250 
Q 1625 4250 1398 4047 
Q 1172 3844 1172 3481 
z
" transform="scale(0.015625)"/>
        <path id="DejaVuSans-32" d="M 1228 531 
L 3431 531 
L 3431 0 
L 469 0 
L 469 531 
Q 828 903 1448 1529 
Q 2069 2156 2228 2338 
Q 2531 2678 2651 2914 
Q 2772 3150 2772 3378 
Q 2772 3750 2511 3984 
Q 2250 4219 1831 4219 
Q 1534 4219 1204 4116 
Q 875 4013 500 3803 
L 500 4441 
Q 881 4594 1212 4672 
Q 1544 4750 1819 4750 
Q 2544 4750 2975 4387 
Q 3406 4025 3406 3419 
Q 3406 3131 3298 2873 
Q 3191 2616 2906 2266 
Q 2828 2175 2409 1742 
Q 1991 1309 1228 531 
z
" transform="scale(0.015625)"/>
        <path id="DejaVuSans-30" d="M 2034 4250 
Q 1547 4250 1301 3770 
Q 1056 3291 1056 2328 
Q 1056 1369 1301 889 
Q 1547 409 2034 409 
Q 2525 409 2770 889 
Q 3016 1369 3016 2328 
Q 3016 3291 2770 3770 
Q 2525 4250 2034 4250 
z
M 2034 4750 
Q 2819 4750 3233 4129 
Q 3647 3509 3647 2328 
Q 3647 1150 3233 529 
Q 2819 -91 2034 -91 
Q 1250 -91 836 529 
Q 422 1150 422 2328 
Q 422 3509 836 4129 
Q 1250 4750 2034 4750 
z
" transform="scale(0.015625)"/>
       </defs>
       <use xlink:href="#DejaVuSans-31"/>
       <use xlink:href="#DejaVuSans-38" x="63.623047"/>
       <use xlink:href="#DejaVuSans-32" x="127.246094"/>
       <use xlink:href="#DejaVuSans-30" x="190.869141"/>
      </g>
     </g>
    </g>
    <g id="xtick_2">
     <g id="line2d_3">
      <path d="M 82.103325 221.025665 
L 82.103325 45.996875 
" clip-path="url(#paf49165812)" style="fill: none; stroke: #b0b0b0; stroke-width: 0.8; stroke-linecap: square"/>
     </g>
     <g id="line2d_4">
      <g>
       <use xlink:href="#m4f3a341728" x="82.103325" y="221.025665" style="stroke: #000000; stroke-width: 0.8"/>
      </g>
     </g>
     <g id="text_2">
      <!-- 1830 -->
      <g transform="translate(75.056564 251.394439)rotate(-45)scale(0.1 -0.1)">
       <defs>
        <path id="DejaVuSans-33" d="M 2597 2516 
Q 3050 2419 3304 2112 
Q 3559 1806 3559 1356 
Q 3559 666 3084 287 
Q 2609 -91 1734 -91 
Q 1441 -91 1130 -33 
Q 819 25 488 141 
L 488 750 
Q 750 597 1062 519 
Q 1375 441 1716 441 
Q 2309 441 2620 675 
Q 2931 909 2931 1356 
Q 2931 1769 2642 2001 
Q 2353 2234 1838 2234 
L 1294 2234 
L 1294 2753 
L 1863 2753 
Q 2328 2753 2575 2939 
Q 2822 3125 2822 3475 
Q 2822 3834 2567 4026 
Q 2313 4219 1838 4219 
Q 1578 4219 1281 4162 
Q 984 4106 628 3988 
L 628 4550 
Q 988 4650 1302 4700 
Q 1616 4750 1894 4750 
Q 2613 4750 3031 4423 
Q 3450 4097 3450 3541 
Q 3450 3153 3228 2886 
Q 3006 2619 2597 2516 
z
" transform="scale(0.015625)"/>
       </defs>
       <use xlink:href="#DejaVuSans-31"/>
       <use xlink:href="#DejaVuSans-38" x="63.623047"/>
       <use xlink:href="#DejaVuSans-33" x="127.246094"/>
       <use xlink:href="#DejaVuSans-30" x="190.869141"/>
      </g>
     </g>
    </g>
    <g id="xtick_3">
     <g id="line2d_5">
      <path d="M 99.29625 221.025665 
L 99.29625 45.996875 
" clip-path="url(#paf49165812)" style="fill: none; stroke: #b0b0b0; stroke-width: 0.8; stroke-linecap: square"/>
     </g>
     <g id="line2d_6">
      <g>
       <use xlink:href="#m4f3a341728" x="99.29625" y="221.025665" style="stroke: #000000; stroke-width: 0.8"/>
      </g>
     </g>
     <g id="text_3">
      <!-- 1840 -->
      <g transform="translate(92.249489 251.394439)rotate(-45)scale(0.1 -0.1)">
       <defs>
        <path id="DejaVuSans-34" d="M 2419 4116 
L 825 1625 
L 2419 1625 
L 2419 4116 
z
M 2253 4666 
L 3047 4666 
L 3047 1625 
L 3713 1625 
L 3713 1100 
L 3047 1100 
L 3047 0 
L 2419 0 
L 2419 1100 
L 313 1100 
L 313 1709 
L 2253 4666 
z
" transform="scale(0.015625)"/>
       </defs>
       <use xlink:href="#DejaVuSans-31"/>
       <use xlink:href="#DejaVuSans-38" x="63.623047"/>
       <use xlink:href="#DejaVuSans-34" x="127.246094"/>
       <use xlink:href="#DejaVuSans-30" x="190.869141"/>
      </g>
     </g>
    </g>
    <g id="xtick_4">
     <g id="line2d_7">
      <path d="M 116.489174 221.025665 
L 116.489174 45.996875 
" clip-path="url(#paf49165812)" style="fill: none; stroke: #b0b0b0; stroke-width: 0.8; stroke-linecap: square"/>
     </g>
     <g id="line2d_8">
      <g>
       <use xlink:href="#m4f3a341728" x="116.489174" y="221.025665" style="stroke: #000000; stroke-width: 0.8"/>
      </g>
     </g>
     <g id="text_4">
      <!-- 1850 -->
      <g transform="translate(109.442413 251.394439)rotate(-45)scale(0.1 -0.1)">
       <defs>
        <path id="DejaVuSans-35" d="M 691 4666 
L 3169 4666 
L 3169 4134 
L 1269 4134 
L 1269 2991 
Q 1406 3038 1543 3061 
Q 1681 3084 1819 3084 
Q 2600 3084 3056 2656 
Q 3513 2228 3513 1497 
Q 3513 744 3044 326 
Q 2575 -91 1722 -91 
Q 1428 -91 1123 -41 
Q 819 9 494 109 
L 494 744 
Q 775 591 1075 516 
Q 1375 441 1709 441 
Q 2250 441 2565 725 
Q 2881 1009 2881 1497 
Q 2881 1984 2565 2268 
Q 2250 2553 1709 2553 
Q 1456 2553 1204 2497 
Q 953 2441 691 2322 
L 691 4666 
z
" transform="scale(0.015625)"/>
       </defs>
       <use xlink:href="#DejaVuSans-31"/>
       <use xlink:href="#DejaVuSans-38" x="63.623047"/>
       <use xlink:href="#DejaVuSans-35" x="127.246094"/>
       <use xlink:href="#DejaVuSans-30" x="190.869141"/>
      </g>
     </g>
    </g>
    <g id="xtick_5">
     <g id="line2d_9">
      <path d="M 133.682098 221.025665 
L 133.682098 45.996875 
" clip-path="url(#paf49165812)" style="fill: none; stroke: #b0b0b0; stroke-width: 0.8; stroke-linecap: square"/>
     </g>
     <g id="line2d_10">
      <g>
       <use xlink:href="#m4f3a341728" x="133.682098" y="221.025665" style="stroke: #000000; stroke-width: 0.8"/>
      </g>
     </g>
     <g id="text_5">
      <!-- 1860 -->
      <g transform="translate(126.635337 251.394439)rotate(-45)scale(0.1 -0.1)">
       <defs>
        <path id="DejaVuSans-36" d="M 2113 2584 
Q 1688 2584 1439 2293 
Q 1191 2003 1191 1497 
Q 1191 994 1439 701 
Q 1688 409 2113 409 
Q 2538 409 2786 701 
Q 3034 994 3034 1497 
Q 3034 2003 2786 2293 
Q 2538 2584 2113 2584 
z
M 3366 4563 
L 3366 3988 
Q 3128 4100 2886 4159 
Q 2644 4219 2406 4219 
Q 1781 4219 1451 3797 
Q 1122 3375 1075 2522 
Q 1259 2794 1537 2939 
Q 1816 3084 2150 3084 
Q 2853 3084 3261 2657 
Q 3669 2231 3669 1497 
Q 3669 778 3244 343 
Q 2819 -91 2113 -91 
Q 1303 -91 875 529 
Q 447 1150 447 2328 
Q 447 3434 972 4092 
Q 1497 4750 2381 4750 
Q 2619 4750 2861 4703 
Q 3103 4656 3366 4563 
z
" transform="scale(0.015625)"/>
       </defs>
       <use xlink:href="#DejaVuSans-31"/>
       <use xlink:href="#DejaVuSans-38" x="63.623047"/>
       <use xlink:href="#DejaVuSans-36" x="127.246094"/>
       <use xlink:href="#DejaVuSans-30" x="190.869141"/>
      </g>
     </g>
    </g>
    <g id="xtick_6">
     <g id="line2d_11">
      <path d="M 150.875023 221.025665 
L 150.875023 45.996875 
" clip-path="url(#paf49165812)" style="fill: none; stroke: #b0b0b0; stroke-width: 0.8; stroke-linecap: square"/>
     </g>
     <g id="line2d_12">
      <g>
       <use xlink:href="#m4f3a341728" x="150.875023" y="221.025665" style="stroke: #000000; stroke-width: 0.8"/>
      </g>
     </g>
     <g id="text_6">
      <!-- 1870 -->
      <g transform="translate(143.828262 251.394439)rotate(-45)scale(0.1 -0.1)">
       <defs>
        <path id="DejaVuSans-37" d="M 525 4666 
L 3525 4666 
L 3525 4397 
L 1831 0 
L 1172 0 
L 2766 4134 
L 525 4134 
L 525 4666 
z
" transform="scale(0.015625)"/>
       </defs>
       <use xlink:href="#DejaVuSans-31"/>
       <use xlink:href="#DejaVuSans-38" x="63.623047"/>
       <use xlink:href="#DejaVuSans-37" x="127.246094"/>
       <use xlink:href="#DejaVuSans-30" x="190.869141"/>
      </g>
     </g>
    </g>
    <g id="xtick_7">
     <g id="line2d_13">
      <path d="M 168.067947 221.025665 
L 168.067947 45.996875 
" clip-path="url(#paf49165812)" style="fill: none; stroke: #b0b0b0; stroke-width: 0.8; stroke-linecap: square"/>
     </g>
     <g id="line2d_14">
      <g>
       <use xlink:href="#m4f3a341728" x="168.067947" y="221.025665" style="stroke: #000000; stroke-width: 0.8"/>
      </g>
     </g>
     <g id="text_7">
      <!-- 1880 -->
      <g transform="translate(161.021186 251.394439)rotate(-45)scale(0.1 -0.1)">
       <use xlink:href="#DejaVuSans-31"/>
       <use xlink:href="#DejaVuSans-38" x="63.623047"/>
       <use xlink:href="#DejaVuSans-38" x="127.246094"/>
       <use xlink:href="#DejaVuSans-30" x="190.869141"/>
      </g>
     </g>
    </g>
    <g id="xtick_8">
     <g id="line2d_15">
      <path d="M 185.260872 221.025665 
L 185.260872 45.996875 
" clip-path="url(#paf49165812)" style="fill: none; stroke: #b0b0b0; stroke-width: 0.8; stroke-linecap: square"/>
     </g>
     <g id="line2d_16">
      <g>
       <use xlink:href="#m4f3a341728" x="185.260872" y="221.025665" style="stroke: #000000; stroke-width: 0.8"/>
      </g>
     </g>
     <g id="text_8">
      <!-- 1890 -->
      <g transform="translate(178.214111 251.394439)rotate(-45)scale(0.1 -0.1)">
       <defs>
        <path id="DejaVuSans-39" d="M 703 97 
L 703 672 
Q 941 559 1184 500 
Q 1428 441 1663 441 
Q 2288 441 2617 861 
Q 2947 1281 2994 2138 
Q 2813 1869 2534 1725 
Q 2256 1581 1919 1581 
Q 1219 1581 811 2004 
Q 403 2428 403 3163 
Q 403 3881 828 4315 
Q 1253 4750 1959 4750 
Q 2769 4750 3195 4129 
Q 3622 3509 3622 2328 
Q 3622 1225 3098 567 
Q 2575 -91 1691 -91 
Q 1453 -91 1209 -44 
Q 966 3 703 97 
z
M 1959 2075 
Q 2384 2075 2632 2365 
Q 2881 2656 2881 3163 
Q 2881 3666 2632 3958 
Q 2384 4250 1959 4250 
Q 1534 4250 1286 3958 
Q 1038 3666 1038 3163 
Q 1038 2656 1286 2365 
Q 1534 2075 1959 2075 
z
" transform="scale(0.015625)"/>
       </defs>
       <use xlink:href="#DejaVuSans-31"/>
       <use xlink:href="#DejaVuSans-38" x="63.623047"/>
       <use xlink:href="#DejaVuSans-39" x="127.246094"/>
       <use xlink:href="#DejaVuSans-30" x="190.869141"/>
      </g>
     </g>
    </g>
    <g id="xtick_9">
     <g id="line2d_17">
      <path d="M 202.453796 221.025665 
L 202.453796 45.996875 
" clip-path="url(#paf49165812)" style="fill: none; stroke: #b0b0b0; stroke-width: 0.8; stroke-linecap: square"/>
     </g>
     <g id="line2d_18">
      <g>
       <use xlink:href="#m4f3a341728" x="202.453796" y="221.025665" style="stroke: #000000; stroke-width: 0.8"/>
      </g>
     </g>
     <g id="text_9">
      <!-- 1900 -->
      <g transform="translate(195.407035 251.394439)rotate(-45)scale(0.1 -0.1)">
       <use xlink:href="#DejaVuSans-31"/>
       <use xlink:href="#DejaVuSans-39" x="63.623047"/>
       <use xlink:href="#DejaVuSans-30" x="127.246094"/>
       <use xlink:href="#DejaVuSans-30" x="190.869141"/>
      </g>
     </g>
    </g>
    <g id="xtick_10">
     <g id="line2d_19">
      <path d="M 219.646721 221.025665 
L 219.646721 45.996875 
" clip-path="url(#paf49165812)" style="fill: none; stroke: #b0b0b0; stroke-width: 0.8; stroke-linecap: square"/>
     </g>
     <g id="line2d_20">
      <g>
       <use xlink:href="#m4f3a341728" x="219.646721" y="221.025665" style="stroke: #000000; stroke-width: 0.8"/>
      </g>
     </g>
     <g id="text_10">
      <!-- 1910 -->
      <g transform="translate(212.59996 251.394439)rotate(-45)scale(0.1 -0.1)">
       <use xlink:href="#DejaVuSans-31"/>
       <use xlink:href="#DejaVuSans-39" x="63.623047"/>
       <use xlink:href="#DejaVuSans-31" x="127.246094"/>
       <use xlink:href="#DejaVuSans-30" x="190.869141"/>
      </g>
     </g>
    </g>
    <g id="xtick_11">
     <g id="line2d_21">
      <path d="M 236.839645 221.025665 
L 236.839645 45.996875 
" clip-path="url(#paf49165812)" style="fill: none; stroke: #b0b0b0; stroke-width: 0.8; stroke-linecap: square"/>
     </g>
     <g id="line2d_22">
      <g>
       <use xlink:href="#m4f3a341728" x="236.839645" y="221.025665" style="stroke: #000000; stroke-width: 0.8"/>
      </g>
     </g>
     <g id="text_11">
      <!-- 1920 -->
      <g transform="translate(229.792884 251.394439)rotate(-45)scale(0.1 -0.1)">
       <use xlink:href="#DejaVuSans-31"/>
       <use xlink:href="#DejaVuSans-39" x="63.623047"/>
       <use xlink:href="#DejaVuSans-32" x="127.246094"/>
       <use xlink:href="#DejaVuSans-30" x="190.869141"/>
      </g>
     </g>
    </g>
    <g id="xtick_12">
     <g id="line2d_23">
      <path d="M 254.032569 221.025665 
L 254.032569 45.996875 
" clip-path="url(#paf49165812)" style="fill: none; stroke: #b0b0b0; stroke-width: 0.8; stroke-linecap: square"/>
     </g>
     <g id="line2d_24">
      <g>
       <use xlink:href="#m4f3a341728" x="254.032569" y="221.025665" style="stroke: #000000; stroke-width: 0.8"/>
      </g>
     </g>
     <g id="text_12">
      <!-- 1930 -->
      <g transform="translate(246.985808 251.394439)rotate(-45)scale(0.1 -0.1)">
       <use xlink:href="#DejaVuSans-31"/>
       <use xlink:href="#DejaVuSans-39" x="63.623047"/>
       <use xlink:href="#DejaVuSans-33" x="127.246094"/>
       <use xlink:href="#DejaVuSans-30" x="190.869141"/>
      </g>
     </g>
    </g>
    <g id="xtick_13">
     <g id="line2d_25">
      <path d="M 271.225494 221.025665 
L 271.225494 45.996875 
" clip-path="url(#paf49165812)" style="fill: none; stroke: #b0b0b0; stroke-width: 0.8; stroke-linecap: square"/>
     </g>
     <g id="line2d_26">
      <g>
       <use xlink:href="#m4f3a341728" x="271.225494" y="221.025665" style="stroke: #000000; stroke-width: 0.8"/>
      </g>
     </g>
     <g id="text_13">
      <!-- 1940 -->
      <g transform="translate(264.178733 251.394439)rotate(-45)scale(0.1 -0.1)">
       <use xlink:href="#DejaVuSans-31"/>
       <use xlink:href="#DejaVuSans-39" x="63.623047"/>
       <use xlink:href="#DejaVuSans-34" x="127.246094"/>
       <use xlink:href="#DejaVuSans-30" x="190.869141"/>
      </g>
     </g>
    </g>
    <g id="xtick_14">
     <g id="line2d_27">
      <path d="M 288.418418 221.025665 
L 288.418418 45.996875 
" clip-path="url(#paf49165812)" style="fill: none; stroke: #b0b0b0; stroke-width: 0.8; stroke-linecap: square"/>
     </g>
     <g id="line2d_28">
      <g>
       <use xlink:href="#m4f3a341728" x="288.418418" y="221.025665" style="stroke: #000000; stroke-width: 0.8"/>
      </g>
     </g>
     <g id="text_14">
      <!-- 1950 -->
      <g transform="translate(281.371657 251.394439)rotate(-45)scale(0.1 -0.1)">
       <use xlink:href="#DejaVuSans-31"/>
       <use xlink:href="#DejaVuSans-39" x="63.623047"/>
       <use xlink:href="#DejaVuSans-35" x="127.246094"/>
       <use xlink:href="#DejaVuSans-30" x="190.869141"/>
      </g>
     </g>
    </g>
    <g id="xtick_15">
     <g id="line2d_29">
      <path d="M 305.611343 221.025665 
L 305.611343 45.996875 
" clip-path="url(#paf49165812)" style="fill: none; stroke: #b0b0b0; stroke-width: 0.8; stroke-linecap: square"/>
     </g>
     <g id="line2d_30">
      <g>
       <use xlink:href="#m4f3a341728" x="305.611343" y="221.025665" style="stroke: #000000; stroke-width: 0.8"/>
      </g>
     </g>
     <g id="text_15">
      <!-- 1960 -->
      <g transform="translate(298.564582 251.394439)rotate(-45)scale(0.1 -0.1)">
       <use xlink:href="#DejaVuSans-31"/>
       <use xlink:href="#DejaVuSans-39" x="63.623047"/>
       <use xlink:href="#DejaVuSans-36" x="127.246094"/>
       <use xlink:href="#DejaVuSans-30" x="190.869141"/>
      </g>
     </g>
    </g>
    <g id="xtick_16">
     <g id="line2d_31">
      <path d="M 322.804267 221.025665 
L 322.804267 45.996875 
" clip-path="url(#paf49165812)" style="fill: none; stroke: #b0b0b0; stroke-width: 0.8; stroke-linecap: square"/>
     </g>
     <g id="line2d_32">
      <g>
       <use xlink:href="#m4f3a341728" x="322.804267" y="221.025665" style="stroke: #000000; stroke-width: 0.8"/>
      </g>
     </g>
     <g id="text_16">
      <!-- 1970 -->
      <g transform="translate(315.757506 251.394439)rotate(-45)scale(0.1 -0.1)">
       <use xlink:href="#DejaVuSans-31"/>
       <use xlink:href="#DejaVuSans-39" x="63.623047"/>
       <use xlink:href="#DejaVuSans-37" x="127.246094"/>
       <use xlink:href="#DejaVuSans-30" x="190.869141"/>
      </g>
     </g>
    </g>
    <g id="xtick_17">
     <g id="line2d_33">
      <path d="M 339.997191 221.025665 
L 339.997191 45.996875 
" clip-path="url(#paf49165812)" style="fill: none; stroke: #b0b0b0; stroke-width: 0.8; stroke-linecap: square"/>
     </g>
     <g id="line2d_34">
      <g>
       <use xlink:href="#m4f3a341728" x="339.997191" y="221.025665" style="stroke: #000000; stroke-width: 0.8"/>
      </g>
     </g>
     <g id="text_17">
      <!-- 1980 -->
      <g transform="translate(332.95043 251.394439)rotate(-45)scale(0.1 -0.1)">
       <use xlink:href="#DejaVuSans-31"/>
       <use xlink:href="#DejaVuSans-39" x="63.623047"/>
       <use xlink:href="#DejaVuSans-38" x="127.246094"/>
       <use xlink:href="#DejaVuSans-30" x="190.869141"/>
      </g>
     </g>
    </g>
    <g id="xtick_18">
     <g id="line2d_35">
      <path d="M 357.190116 221.025665 
L 357.190116 45.996875 
" clip-path="url(#paf49165812)" style="fill: none; stroke: #b0b0b0; stroke-width: 0.8; stroke-linecap: square"/>
     </g>
     <g id="line2d_36">
      <g>
       <use xlink:href="#m4f3a341728" x="357.190116" y="221.025665" style="stroke: #000000; stroke-width: 0.8"/>
      </g>
     </g>
     <g id="text_18">
      <!-- 1990 -->
      <g transform="translate(350.143355 251.394439)rotate(-45)scale(0.1 -0.1)">
       <use xlink:href="#DejaVuSans-31"/>
       <use xlink:href="#DejaVuSans-39" x="63.623047"/>
       <use xlink:href="#DejaVuSans-39" x="127.246094"/>
       <use xlink:href="#DejaVuSans-30" x="190.869141"/>
      </g>
     </g>
    </g>
    <g id="xtick_19">
     <g id="line2d_37">
      <path d="M 374.38304 221.025665 
L 374.38304 45.996875 
" clip-path="url(#paf49165812)" style="fill: none; stroke: #b0b0b0; stroke-width: 0.8; stroke-linecap: square"/>
     </g>
     <g id="line2d_38">
      <g>
       <use xlink:href="#m4f3a341728" x="374.38304" y="221.025665" style="stroke: #000000; stroke-width: 0.8"/>
      </g>
     </g>
     <g id="text_19">
      <!-- 2000 -->
      <g transform="translate(367.336279 251.394439)rotate(-45)scale(0.1 -0.1)">
       <use xlink:href="#DejaVuSans-32"/>
       <use xlink:href="#DejaVuSans-30" x="63.623047"/>
       <use xlink:href="#DejaVuSans-30" x="127.246094"/>
       <use xlink:href="#DejaVuSans-30" x="190.869141"/>
      </g>
     </g>
    </g>
    <g id="xtick_20">
     <g id="line2d_39">
      <path d="M 391.575965 221.025665 
L 391.575965 45.996875 
" clip-path="url(#paf49165812)" style="fill: none; stroke: #b0b0b0; stroke-width: 0.8; stroke-linecap: square"/>
     </g>
     <g id="line2d_40">
      <g>
       <use xlink:href="#m4f3a341728" x="391.575965" y="221.025665" style="stroke: #000000; stroke-width: 0.8"/>
      </g>
     </g>
     <g id="text_20">
      <!-- 2010 -->
      <g transform="translate(384.529204 251.394439)rotate(-45)scale(0.1 -0.1)">
       <use xlink:href="#DejaVuSans-32"/>
       <use xlink:href="#DejaVuSans-30" x="63.623047"/>
       <use xlink:href="#DejaVuSans-31" x="127.246094"/>
       <use xlink:href="#DejaVuSans-30" x="190.869141"/>
      </g>
     </g>
    </g>
    <g id="xtick_21">
     <g id="line2d_41">
      <path d="M 408.768889 221.025665 
L 408.768889 45.996875 
" clip-path="url(#paf49165812)" style="fill: none; stroke: #b0b0b0; stroke-width: 0.8; stroke-linecap: square"/>
     </g>
     <g id="line2d_42">
      <g>
       <use xlink:href="#m4f3a341728" x="408.768889" y="221.025665" style="stroke: #000000; stroke-width: 0.8"/>
      </g>
     </g>
     <g id="text_21">
      <!-- 2020 -->
      <g transform="translate(401.722128 251.394439)rotate(-45)scale(0.1 -0.1)">
       <use xlink:href="#DejaVuSans-32"/>
       <use xlink:href="#DejaVuSans-30" x="63.623047"/>
       <use xlink:href="#DejaVuSans-32" x="127.246094"/>
       <use xlink:href="#DejaVuSans-30" x="190.869141"/>
      </g>
     </g>
    </g>
    <g id="text_22">
     <!-- Acquisition Year -->
     <g style="fill: #8b0000" transform="translate(163.02106 273.9975)scale(0.16 -0.16)">
      <defs>
       <path id="Consolas-41" d="M 3488 0 
L 2881 0 
L 2597 891 
L 897 891 
L 609 0 
L 31 0 
L 1388 4084 
L 2150 4084 
L 3488 0 
z
M 2438 1388 
L 1747 3572 
L 1056 1388 
L 2438 1388 
z
" transform="scale(0.015625)"/>
       <path id="Consolas-63" d="M 2938 116 
Q 2725 34 2501 -5 
Q 2278 -44 2041 -44 
Q 1297 -44 895 359 
Q 494 763 494 1538 
Q 494 1909 609 2212 
Q 725 2516 934 2731 
Q 1144 2947 1434 3064 
Q 1725 3181 2075 3181 
Q 2319 3181 2531 3147 
Q 2744 3113 2938 3034 
L 2938 2516 
Q 2734 2622 2523 2670 
Q 2313 2719 2088 2719 
Q 1878 2719 1692 2639 
Q 1506 2559 1365 2409 
Q 1225 2259 1144 2043 
Q 1063 1828 1063 1556 
Q 1063 988 1339 705 
Q 1616 422 2106 422 
Q 2328 422 2536 472 
Q 2744 522 2938 622 
L 2938 116 
z
" transform="scale(0.015625)"/>
       <path id="Consolas-71" d="M 341 1503 
Q 341 1841 430 2144 
Q 519 2447 705 2676 
Q 891 2906 1181 3040 
Q 1472 3175 1875 3175 
Q 2034 3175 2190 3150 
Q 2347 3125 2522 3072 
L 3003 3194 
L 3003 -1281 
L 2456 -1281 
L 2456 -97 
L 2484 575 
Q 2041 -56 1428 -56 
Q 1153 -56 950 56 
Q 747 169 611 375 
Q 475 581 408 868 
Q 341 1156 341 1503 
z
M 897 1538 
Q 897 1275 936 1065 
Q 975 856 1054 711 
Q 1134 566 1254 487 
Q 1375 409 1538 409 
Q 1744 409 1973 593 
Q 2203 778 2456 1141 
L 2456 2597 
Q 2331 2656 2173 2693 
Q 2016 2731 1838 2731 
Q 1378 2731 1137 2428 
Q 897 2125 897 1538 
z
" transform="scale(0.015625)"/>
       <path id="Consolas-75" d="M 3022 0 
L 2534 0 
L 2516 506 
Q 2375 344 2248 236 
Q 2122 128 1997 62 
Q 1872 -3 1745 -29 
Q 1619 -56 1478 -56 
Q 994 -56 747 228 
Q 500 513 500 1088 
L 500 3138 
L 1044 3138 
L 1044 1131 
Q 1044 409 1588 409 
Q 1688 409 1783 439 
Q 1878 469 1983 542 
Q 2088 616 2208 741 
Q 2328 866 2478 1056 
L 2478 3138 
L 3022 3138 
L 3022 0 
z
" transform="scale(0.015625)"/>
       <path id="Consolas-69" d="M 1569 2688 
L 641 2688 
L 641 3138 
L 2119 3138 
L 2119 453 
L 3053 453 
L 3053 0 
L 538 0 
L 538 453 
L 1569 453 
L 1569 2688 
z
M 1759 4453 
Q 1850 4453 1928 4420 
Q 2006 4388 2064 4328 
Q 2122 4269 2155 4192 
Q 2188 4116 2188 4025 
Q 2188 3938 2155 3859 
Q 2122 3781 2064 3722 
Q 2006 3663 1928 3630 
Q 1850 3597 1759 3597 
Q 1669 3597 1591 3630 
Q 1513 3663 1455 3722 
Q 1397 3781 1364 3859 
Q 1331 3938 1331 4025 
Q 1331 4116 1364 4192 
Q 1397 4269 1455 4328 
Q 1513 4388 1591 4420 
Q 1669 4453 1759 4453 
z
" transform="scale(0.015625)"/>
       <path id="Consolas-73" d="M 2984 856 
Q 2984 691 2928 559 
Q 2872 428 2775 326 
Q 2678 225 2550 153 
Q 2422 81 2276 34 
Q 2131 -13 1978 -34 
Q 1825 -56 1678 -56 
Q 1359 -56 1092 -28 
Q 825 0 569 63 
L 569 563 
Q 844 484 1116 443 
Q 1388 403 1656 403 
Q 2047 403 2234 509 
Q 2422 616 2422 813 
Q 2422 897 2392 964 
Q 2363 1031 2284 1092 
Q 2206 1153 2042 1218 
Q 1878 1284 1594 1369 
Q 1381 1431 1201 1511 
Q 1022 1591 890 1700 
Q 759 1809 684 1956 
Q 609 2103 609 2303 
Q 609 2434 670 2590 
Q 731 2747 878 2881 
Q 1025 3016 1275 3105 
Q 1525 3194 1900 3194 
Q 2084 3194 2309 3173 
Q 2534 3153 2778 3103 
L 2778 2619 
Q 2522 2681 2292 2711 
Q 2063 2741 1894 2741 
Q 1691 2741 1552 2709 
Q 1413 2678 1327 2623 
Q 1241 2569 1203 2495 
Q 1166 2422 1166 2338 
Q 1166 2253 1198 2184 
Q 1231 2116 1320 2052 
Q 1409 1988 1568 1923 
Q 1728 1859 1984 1784 
Q 2263 1703 2453 1614 
Q 2644 1525 2762 1415 
Q 2881 1306 2932 1168 
Q 2984 1031 2984 856 
z
" transform="scale(0.015625)"/>
       <path id="Consolas-74" d="M 3028 44 
Q 2844 -3 2647 -23 
Q 2450 -44 2247 -44 
Q 1656 -44 1365 223 
Q 1075 491 1075 1044 
L 1075 2681 
L 197 2681 
L 197 3138 
L 1075 3138 
L 1075 4000 
L 1619 4141 
L 1619 3138 
L 3028 3138 
L 3028 2681 
L 1619 2681 
L 1619 1088 
Q 1619 750 1798 583 
Q 1978 416 2328 416 
Q 2478 416 2656 439 
Q 2834 463 3028 513 
L 3028 44 
z
" transform="scale(0.015625)"/>
       <path id="Consolas-6f" d="M 3231 1594 
Q 3231 1228 3128 923 
Q 3025 619 2831 401 
Q 2638 184 2359 64 
Q 2081 -56 1728 -56 
Q 1391 -56 1123 48 
Q 856 153 670 356 
Q 484 559 386 859 
Q 288 1159 288 1550 
Q 288 1916 391 2217 
Q 494 2519 687 2736 
Q 881 2953 1159 3073 
Q 1438 3194 1791 3194 
Q 2128 3194 2395 3089 
Q 2663 2984 2848 2782 
Q 3034 2581 3132 2281 
Q 3231 1981 3231 1594 
z
M 2675 1569 
Q 2675 1859 2611 2076 
Q 2547 2294 2428 2439 
Q 2309 2584 2139 2657 
Q 1969 2731 1759 2731 
Q 1516 2731 1342 2636 
Q 1169 2541 1058 2381 
Q 947 2222 895 2011 
Q 844 1800 844 1569 
Q 844 1278 908 1059 
Q 972 841 1090 695 
Q 1209 550 1378 476 
Q 1547 403 1759 403 
Q 2003 403 2176 498 
Q 2350 594 2461 753 
Q 2572 913 2623 1123 
Q 2675 1334 2675 1569 
z
" transform="scale(0.015625)"/>
       <path id="Consolas-6e" d="M 500 3138 
L 984 3138 
L 1006 2631 
Q 1144 2794 1272 2901 
Q 1400 3009 1523 3075 
Q 1647 3141 1775 3167 
Q 1903 3194 2041 3194 
Q 2525 3194 2773 2908 
Q 3022 2622 3022 2047 
L 3022 0 
L 2478 0 
L 2478 2003 
Q 2478 2372 2340 2548 
Q 2203 2725 1931 2725 
Q 1831 2725 1736 2695 
Q 1641 2666 1537 2592 
Q 1434 2519 1314 2394 
Q 1194 2269 1044 2081 
L 1044 0 
L 500 0 
L 500 3138 
z
" transform="scale(0.015625)"/>
       <path id="Consolas-20" transform="scale(0.015625)"/>
       <path id="Consolas-59" d="M 3519 4084 
L 2041 1459 
L 2041 0 
L 1478 0 
L 1478 1472 
L 0 4084 
L 672 4084 
L 1484 2591 
L 1784 1991 
L 2059 2534 
L 2881 4084 
L 3519 4084 
z
" transform="scale(0.015625)"/>
       <path id="Consolas-65" d="M 3150 1734 
Q 3150 1619 3147 1541 
Q 3144 1463 3138 1394 
L 934 1394 
Q 934 913 1203 655 
Q 1472 397 1978 397 
Q 2116 397 2253 408 
Q 2391 419 2519 437 
Q 2647 456 2764 479 
Q 2881 503 2981 531 
L 2981 84 
Q 2759 22 2479 -17 
Q 2200 -56 1900 -56 
Q 1497 -56 1206 53 
Q 916 163 730 370 
Q 544 578 455 879 
Q 366 1181 366 1563 
Q 366 1894 461 2189 
Q 556 2484 739 2707 
Q 922 2931 1187 3062 
Q 1453 3194 1791 3194 
Q 2119 3194 2372 3091 
Q 2625 2988 2798 2798 
Q 2972 2609 3061 2339 
Q 3150 2069 3150 1734 
z
M 2584 1813 
Q 2594 2022 2544 2195 
Q 2494 2369 2389 2494 
Q 2284 2619 2128 2689 
Q 1972 2759 1766 2759 
Q 1588 2759 1441 2690 
Q 1294 2622 1187 2497 
Q 1081 2372 1015 2197 
Q 950 2022 934 1813 
L 2584 1813 
z
" transform="scale(0.015625)"/>
       <path id="Consolas-61" d="M 2516 0 
L 2503 422 
Q 2247 169 1983 56 
Q 1719 -56 1428 -56 
Q 1159 -56 968 12 
Q 778 81 654 201 
Q 531 322 473 484 
Q 416 647 416 838 
Q 416 1309 767 1576 
Q 1119 1844 1806 1844 
L 2456 1844 
L 2456 2119 
Q 2456 2397 2278 2564 
Q 2100 2731 1734 2731 
Q 1469 2731 1211 2672 
Q 953 2613 678 2503 
L 678 2994 
Q 781 3031 907 3067 
Q 1034 3103 1175 3131 
Q 1316 3159 1469 3176 
Q 1622 3194 1778 3194 
Q 2063 3194 2291 3131 
Q 2519 3069 2676 2941 
Q 2834 2813 2918 2619 
Q 3003 2425 3003 2163 
L 3003 0 
L 2516 0 
z
M 2456 1428 
L 1766 1428 
Q 1563 1428 1416 1387 
Q 1269 1347 1175 1272 
Q 1081 1197 1036 1092 
Q 991 988 991 856 
Q 991 766 1019 683 
Q 1047 600 1109 536 
Q 1172 472 1272 434 
Q 1372 397 1516 397 
Q 1703 397 1945 511 
Q 2188 625 2456 872 
L 2456 1428 
z
" transform="scale(0.015625)"/>
       <path id="Consolas-72" d="M 628 3138 
L 1125 3138 
L 1141 2559 
Q 1419 2894 1689 3044 
Q 1959 3194 2234 3194 
Q 2722 3194 2973 2878 
Q 3225 2563 3206 1941 
L 2656 1941 
Q 2666 2353 2536 2539 
Q 2406 2725 2156 2725 
Q 2047 2725 1936 2686 
Q 1825 2647 1708 2561 
Q 1591 2475 1459 2340 
Q 1328 2206 1178 2016 
L 1178 0 
L 628 0 
L 628 3138 
z
" transform="scale(0.015625)"/>
      </defs>
      <use xlink:href="#Consolas-41"/>
      <use xlink:href="#Consolas-63" x="54.980469"/>
      <use xlink:href="#Consolas-71" x="109.960938"/>
      <use xlink:href="#Consolas-75" x="164.941406"/>
      <use xlink:href="#Consolas-69" x="219.921875"/>
      <use xlink:href="#Consolas-73" x="274.902344"/>
      <use xlink:href="#Consolas-69" x="329.882812"/>
      <use xlink:href="#Consolas-74" x="384.863281"/>
      <use xlink:href="#Consolas-69" x="439.84375"/>
      <use xlink:href="#Consolas-6f" x="494.824219"/>
      <use xlink:href="#Consolas-6e" x="549.804688"/>
      <use xlink:href="#Consolas-20" x="604.785156"/>
      <use xlink:href="#Consolas-59" x="659.765625"/>
      <use xlink:href="#Consolas-65" x="714.746094"/>
      <use xlink:href="#Consolas-61" x="769.726562"/>
      <use xlink:href="#Consolas-72" x="824.707031"/>
     </g>
    </g>
   </g>
   <g id="matplotlib.axis_2">
    <g id="ytick_1">
     <g id="line2d_43">
      <path d="M 53.735 213.069811 
L 413.06712 213.069811 
" clip-path="url(#paf49165812)" style="fill: none; stroke: #b0b0b0; stroke-width: 0.8; stroke-linecap: square"/>
     </g>
     <g id="line2d_44">
      <defs>
       <path id="m5ad8356310" d="M 0 0 
L -3.5 0 
" style="stroke: #000000; stroke-width: 0.8"/>
      </defs>
      <g>
       <use xlink:href="#m5ad8356310" x="53.735" y="213.069811" style="stroke: #000000; stroke-width: 0.8"/>
      </g>
     </g>
     <g id="text_23">
      <!-- $\mathdefault{10^{0}}$ -->
      <g transform="translate(29.135 216.869029)scale(0.1 -0.1)">
       <use xlink:href="#DejaVuSans-31" transform="translate(0 0.765625)"/>
       <use xlink:href="#DejaVuSans-30" transform="translate(63.623047 0.765625)"/>
       <use xlink:href="#DejaVuSans-30" transform="translate(128.203125 39.046875)scale(0.7)"/>
      </g>
     </g>
    </g>
    <g id="ytick_2">
     <g id="line2d_45">
      <path d="M 53.735 178.317155 
L 413.06712 178.317155 
" clip-path="url(#paf49165812)" style="fill: none; stroke: #b0b0b0; stroke-width: 0.8; stroke-linecap: square"/>
     </g>
     <g id="line2d_46">
      <g>
       <use xlink:href="#m5ad8356310" x="53.735" y="178.317155" style="stroke: #000000; stroke-width: 0.8"/>
      </g>
     </g>
     <g id="text_24">
      <!-- $\mathdefault{10^{1}}$ -->
      <g transform="translate(29.135 182.116374)scale(0.1 -0.1)">
       <use xlink:href="#DejaVuSans-31" transform="translate(0 0.684375)"/>
       <use xlink:href="#DejaVuSans-30" transform="translate(63.623047 0.684375)"/>
       <use xlink:href="#DejaVuSans-31" transform="translate(128.203125 38.965625)scale(0.7)"/>
      </g>
     </g>
    </g>
    <g id="ytick_3">
     <g id="line2d_47">
      <path d="M 53.735 143.5645 
L 413.06712 143.5645 
" clip-path="url(#paf49165812)" style="fill: none; stroke: #b0b0b0; stroke-width: 0.8; stroke-linecap: square"/>
     </g>
     <g id="line2d_48">
      <g>
       <use xlink:href="#m5ad8356310" x="53.735" y="143.5645" style="stroke: #000000; stroke-width: 0.8"/>
      </g>
     </g>
     <g id="text_25">
      <!-- $\mathdefault{10^{2}}$ -->
      <g transform="translate(29.135 147.363719)scale(0.1 -0.1)">
       <use xlink:href="#DejaVuSans-31" transform="translate(0 0.765625)"/>
       <use xlink:href="#DejaVuSans-30" transform="translate(63.623047 0.765625)"/>
       <use xlink:href="#DejaVuSans-32" transform="translate(128.203125 39.046875)scale(0.7)"/>
      </g>
     </g>
    </g>
    <g id="ytick_4">
     <g id="line2d_49">
      <path d="M 53.735 108.811845 
L 413.06712 108.811845 
" clip-path="url(#paf49165812)" style="fill: none; stroke: #b0b0b0; stroke-width: 0.8; stroke-linecap: square"/>
     </g>
     <g id="line2d_50">
      <g>
       <use xlink:href="#m5ad8356310" x="53.735" y="108.811845" style="stroke: #000000; stroke-width: 0.8"/>
      </g>
     </g>
     <g id="text_26">
      <!-- $\mathdefault{10^{3}}$ -->
      <g transform="translate(29.135 112.611064)scale(0.1 -0.1)">
       <use xlink:href="#DejaVuSans-31" transform="translate(0 0.765625)"/>
       <use xlink:href="#DejaVuSans-30" transform="translate(63.623047 0.765625)"/>
       <use xlink:href="#DejaVuSans-33" transform="translate(128.203125 39.046875)scale(0.7)"/>
      </g>
     </g>
    </g>
    <g id="ytick_5">
     <g id="line2d_51">
      <path d="M 53.735 74.05919 
L 413.06712 74.05919 
" clip-path="url(#paf49165812)" style="fill: none; stroke: #b0b0b0; stroke-width: 0.8; stroke-linecap: square"/>
     </g>
     <g id="line2d_52">
      <g>
       <use xlink:href="#m5ad8356310" x="53.735" y="74.05919" style="stroke: #000000; stroke-width: 0.8"/>
      </g>
     </g>
     <g id="text_27">
      <!-- $\mathdefault{10^{4}}$ -->
      <g transform="translate(29.135 77.858409)scale(0.1 -0.1)">
       <use xlink:href="#DejaVuSans-31" transform="translate(0 0.684375)"/>
       <use xlink:href="#DejaVuSans-30" transform="translate(63.623047 0.684375)"/>
       <use xlink:href="#DejaVuSans-34" transform="translate(128.203125 38.965625)scale(0.7)"/>
      </g>
     </g>
    </g>
    <g id="ytick_6">
     <g id="line2d_53">
      <defs>
       <path id="m62c6cde5f3" d="M 0 0 
L -2 0 
" style="stroke: #000000; stroke-width: 0.6"/>
      </defs>
      <g>
       <use xlink:href="#m62c6cde5f3" x="53.735" y="220.779644" style="stroke: #000000; stroke-width: 0.6"/>
      </g>
     </g>
    </g>
    <g id="ytick_7">
     <g id="line2d_54">
      <g>
       <use xlink:href="#m62c6cde5f3" x="53.735" y="218.453065" style="stroke: #000000; stroke-width: 0.6"/>
      </g>
     </g>
    </g>
    <g id="ytick_8">
     <g id="line2d_55">
      <g>
       <use xlink:href="#m62c6cde5f3" x="53.735" y="216.437691" style="stroke: #000000; stroke-width: 0.6"/>
      </g>
     </g>
    </g>
    <g id="ytick_9">
     <g id="line2d_56">
      <g>
       <use xlink:href="#m62c6cde5f3" x="53.735" y="214.660005" style="stroke: #000000; stroke-width: 0.6"/>
      </g>
     </g>
    </g>
    <g id="ytick_10">
     <g id="line2d_57">
      <g>
       <use xlink:href="#m62c6cde5f3" x="53.735" y="202.608219" style="stroke: #000000; stroke-width: 0.6"/>
      </g>
     </g>
    </g>
    <g id="ytick_11">
     <g id="line2d_58">
      <g>
       <use xlink:href="#m62c6cde5f3" x="53.735" y="196.48858" style="stroke: #000000; stroke-width: 0.6"/>
      </g>
     </g>
    </g>
    <g id="ytick_12">
     <g id="line2d_59">
      <g>
       <use xlink:href="#m62c6cde5f3" x="53.735" y="192.146627" style="stroke: #000000; stroke-width: 0.6"/>
      </g>
     </g>
    </g>
    <g id="ytick_13">
     <g id="line2d_60">
      <g>
       <use xlink:href="#m62c6cde5f3" x="53.735" y="188.778747" style="stroke: #000000; stroke-width: 0.6"/>
      </g>
     </g>
    </g>
    <g id="ytick_14">
     <g id="line2d_61">
      <g>
       <use xlink:href="#m62c6cde5f3" x="53.735" y="186.026989" style="stroke: #000000; stroke-width: 0.6"/>
      </g>
     </g>
    </g>
    <g id="ytick_15">
     <g id="line2d_62">
      <g>
       <use xlink:href="#m62c6cde5f3" x="53.735" y="183.70041" style="stroke: #000000; stroke-width: 0.6"/>
      </g>
     </g>
    </g>
    <g id="ytick_16">
     <g id="line2d_63">
      <g>
       <use xlink:href="#m62c6cde5f3" x="53.735" y="181.685036" style="stroke: #000000; stroke-width: 0.6"/>
      </g>
     </g>
    </g>
    <g id="ytick_17">
     <g id="line2d_64">
      <g>
       <use xlink:href="#m62c6cde5f3" x="53.735" y="179.90735" style="stroke: #000000; stroke-width: 0.6"/>
      </g>
     </g>
    </g>
    <g id="ytick_18">
     <g id="line2d_65">
      <g>
       <use xlink:href="#m62c6cde5f3" x="53.735" y="167.855564" style="stroke: #000000; stroke-width: 0.6"/>
      </g>
     </g>
    </g>
    <g id="ytick_19">
     <g id="line2d_66">
      <g>
       <use xlink:href="#m62c6cde5f3" x="53.735" y="161.735925" style="stroke: #000000; stroke-width: 0.6"/>
      </g>
     </g>
    </g>
    <g id="ytick_20">
     <g id="line2d_67">
      <g>
       <use xlink:href="#m62c6cde5f3" x="53.735" y="157.393972" style="stroke: #000000; stroke-width: 0.6"/>
      </g>
     </g>
    </g>
    <g id="ytick_21">
     <g id="line2d_68">
      <g>
       <use xlink:href="#m62c6cde5f3" x="53.735" y="154.026092" style="stroke: #000000; stroke-width: 0.6"/>
      </g>
     </g>
    </g>
    <g id="ytick_22">
     <g id="line2d_69">
      <g>
       <use xlink:href="#m62c6cde5f3" x="53.735" y="151.274333" style="stroke: #000000; stroke-width: 0.6"/>
      </g>
     </g>
    </g>
    <g id="ytick_23">
     <g id="line2d_70">
      <g>
       <use xlink:href="#m62c6cde5f3" x="53.735" y="148.947755" style="stroke: #000000; stroke-width: 0.6"/>
      </g>
     </g>
    </g>
    <g id="ytick_24">
     <g id="line2d_71">
      <g>
       <use xlink:href="#m62c6cde5f3" x="53.735" y="146.932381" style="stroke: #000000; stroke-width: 0.6"/>
      </g>
     </g>
    </g>
    <g id="ytick_25">
     <g id="line2d_72">
      <g>
       <use xlink:href="#m62c6cde5f3" x="53.735" y="145.154695" style="stroke: #000000; stroke-width: 0.6"/>
      </g>
     </g>
    </g>
    <g id="ytick_26">
     <g id="line2d_73">
      <g>
       <use xlink:href="#m62c6cde5f3" x="53.735" y="133.102909" style="stroke: #000000; stroke-width: 0.6"/>
      </g>
     </g>
    </g>
    <g id="ytick_27">
     <g id="line2d_74">
      <g>
       <use xlink:href="#m62c6cde5f3" x="53.735" y="126.98327" style="stroke: #000000; stroke-width: 0.6"/>
      </g>
     </g>
    </g>
    <g id="ytick_28">
     <g id="line2d_75">
      <g>
       <use xlink:href="#m62c6cde5f3" x="53.735" y="122.641317" style="stroke: #000000; stroke-width: 0.6"/>
      </g>
     </g>
    </g>
    <g id="ytick_29">
     <g id="line2d_76">
      <g>
       <use xlink:href="#m62c6cde5f3" x="53.735" y="119.273437" style="stroke: #000000; stroke-width: 0.6"/>
      </g>
     </g>
    </g>
    <g id="ytick_30">
     <g id="line2d_77">
      <g>
       <use xlink:href="#m62c6cde5f3" x="53.735" y="116.521678" style="stroke: #000000; stroke-width: 0.6"/>
      </g>
     </g>
    </g>
    <g id="ytick_31">
     <g id="line2d_78">
      <g>
       <use xlink:href="#m62c6cde5f3" x="53.735" y="114.1951" style="stroke: #000000; stroke-width: 0.6"/>
      </g>
     </g>
    </g>
    <g id="ytick_32">
     <g id="line2d_79">
      <g>
       <use xlink:href="#m62c6cde5f3" x="53.735" y="112.179725" style="stroke: #000000; stroke-width: 0.6"/>
      </g>
     </g>
    </g>
    <g id="ytick_33">
     <g id="line2d_80">
      <g>
       <use xlink:href="#m62c6cde5f3" x="53.735" y="110.402039" style="stroke: #000000; stroke-width: 0.6"/>
      </g>
     </g>
    </g>
    <g id="ytick_34">
     <g id="line2d_81">
      <g>
       <use xlink:href="#m62c6cde5f3" x="53.735" y="98.350254" style="stroke: #000000; stroke-width: 0.6"/>
      </g>
     </g>
    </g>
    <g id="ytick_35">
     <g id="line2d_82">
      <g>
       <use xlink:href="#m62c6cde5f3" x="53.735" y="92.230615" style="stroke: #000000; stroke-width: 0.6"/>
      </g>
     </g>
    </g>
    <g id="ytick_36">
     <g id="line2d_83">
      <g>
       <use xlink:href="#m62c6cde5f3" x="53.735" y="87.888662" style="stroke: #000000; stroke-width: 0.6"/>
      </g>
     </g>
    </g>
    <g id="ytick_37">
     <g id="line2d_84">
      <g>
       <use xlink:href="#m62c6cde5f3" x="53.735" y="84.520782" style="stroke: #000000; stroke-width: 0.6"/>
      </g>
     </g>
    </g>
    <g id="ytick_38">
     <g id="line2d_85">
      <g>
       <use xlink:href="#m62c6cde5f3" x="53.735" y="81.769023" style="stroke: #000000; stroke-width: 0.6"/>
      </g>
     </g>
    </g>
    <g id="ytick_39">
     <g id="line2d_86">
      <g>
       <use xlink:href="#m62c6cde5f3" x="53.735" y="79.442444" style="stroke: #000000; stroke-width: 0.6"/>
      </g>
     </g>
    </g>
    <g id="ytick_40">
     <g id="line2d_87">
      <g>
       <use xlink:href="#m62c6cde5f3" x="53.735" y="77.42707" style="stroke: #000000; stroke-width: 0.6"/>
      </g>
     </g>
    </g>
    <g id="ytick_41">
     <g id="line2d_88">
      <g>
       <use xlink:href="#m62c6cde5f3" x="53.735" y="75.649384" style="stroke: #000000; stroke-width: 0.6"/>
      </g>
     </g>
    </g>
    <g id="ytick_42">
     <g id="line2d_89">
      <g>
       <use xlink:href="#m62c6cde5f3" x="53.735" y="63.597598" style="stroke: #000000; stroke-width: 0.6"/>
      </g>
     </g>
    </g>
    <g id="ytick_43">
     <g id="line2d_90">
      <g>
       <use xlink:href="#m62c6cde5f3" x="53.735" y="57.47796" style="stroke: #000000; stroke-width: 0.6"/>
      </g>
     </g>
    </g>
    <g id="ytick_44">
     <g id="line2d_91">
      <g>
       <use xlink:href="#m62c6cde5f3" x="53.735" y="53.136007" style="stroke: #000000; stroke-width: 0.6"/>
      </g>
     </g>
    </g>
    <g id="ytick_45">
     <g id="line2d_92">
      <g>
       <use xlink:href="#m62c6cde5f3" x="53.735" y="49.768127" style="stroke: #000000; stroke-width: 0.6"/>
      </g>
     </g>
    </g>
    <g id="ytick_46">
     <g id="line2d_93">
      <g>
       <use xlink:href="#m62c6cde5f3" x="53.735" y="47.016368" style="stroke: #000000; stroke-width: 0.6"/>
      </g>
     </g>
    </g>
    <g id="text_28">
     <!-- Artworks Acquired -->
     <g style="fill: #8b0000" transform="translate(21.9325 208.29002)rotate(-90)scale(0.16 -0.16)">
      <defs>
       <path id="Consolas-77" d="M 3406 3138 
L 2950 0 
L 2291 0 
L 1838 1313 
L 1747 1631 
L 1644 1294 
L 1209 0 
L 569 0 
L 116 3138 
L 647 3138 
L 909 1006 
L 966 531 
L 1100 947 
L 1556 2356 
L 1947 2356 
L 2438 966 
L 2578 550 
L 2625 991 
L 2869 3138 
L 3406 3138 
z
" transform="scale(0.015625)"/>
       <path id="Consolas-6b" d="M 3322 0 
L 2575 0 
L 1113 1681 
L 1113 0 
L 569 0 
L 569 4416 
L 1113 4416 
L 1113 1703 
L 2522 3138 
L 3241 3138 
L 1769 1691 
L 3322 0 
z
" transform="scale(0.015625)"/>
       <path id="Consolas-64" d="M 341 1503 
Q 341 1903 450 2214 
Q 559 2525 761 2739 
Q 963 2953 1245 3064 
Q 1528 3175 1875 3175 
Q 2025 3175 2170 3156 
Q 2316 3138 2456 3097 
L 2456 4416 
L 3003 4416 
L 3003 0 
L 2516 0 
L 2497 594 
Q 2269 263 2003 103 
Q 1738 -56 1428 -56 
Q 1159 -56 954 56 
Q 750 169 614 373 
Q 478 578 409 865 
Q 341 1153 341 1503 
z
M 897 1538 
Q 897 969 1064 689 
Q 1231 409 1538 409 
Q 1744 409 1973 593 
Q 2203 778 2456 1141 
L 2456 2597 
Q 2322 2659 2159 2692 
Q 1997 2725 1838 2725 
Q 1394 2725 1145 2437 
Q 897 2150 897 1538 
z
" transform="scale(0.015625)"/>
      </defs>
      <use xlink:href="#Consolas-41"/>
      <use xlink:href="#Consolas-72" x="54.980469"/>
      <use xlink:href="#Consolas-74" x="109.960938"/>
      <use xlink:href="#Consolas-77" x="164.941406"/>
      <use xlink:href="#Consolas-6f" x="219.921875"/>
      <use xlink:href="#Consolas-72" x="274.902344"/>
      <use xlink:href="#Consolas-6b" x="329.882812"/>
      <use xlink:href="#Consolas-73" x="384.863281"/>
      <use xlink:href="#Consolas-20" x="439.84375"/>
      <use xlink:href="#Consolas-41" x="494.824219"/>
      <use xlink:href="#Consolas-63" x="549.804688"/>
      <use xlink:href="#Consolas-71" x="604.785156"/>
      <use xlink:href="#Consolas-75" x="659.765625"/>
      <use xlink:href="#Consolas-69" x="714.746094"/>
      <use xlink:href="#Consolas-72" x="769.726562"/>
      <use xlink:href="#Consolas-65" x="824.707031"/>
      <use xlink:href="#Consolas-64" x="879.6875"/>
     </g>
    </g>
   </g>
   <g id="line2d_94">
    <path d="M 70.068278 213.069811 
L 71.787571 202.608219 
L 75.226156 192.146627 
L 76.945448 213.069811 
L 78.66474 196.48858 
L 82.103325 202.608219 
L 88.980495 213.069811 
L 90.699787 213.069811 
L 92.41908 196.48858 
L 94.138372 192.146627 
L 99.29625 202.608219 
L 101.015542 202.608219 
L 102.734835 213.069811 
L 106.173419 213.069811 
L 111.331297 137.647454 
L 114.769882 213.069811 
L 116.489174 213.069811 
L 121.647051 196.48858 
L 123.366344 170.308444 
L 125.085636 213.069811 
L 126.804929 53.952729 
L 128.524221 202.608219 
L 130.243514 192.146627 
L 131.962806 170.308444 
L 133.682098 202.608219 
L 135.401391 192.146627 
L 138.839976 213.069811 
L 140.559268 202.608219 
L 143.997853 202.608219 
L 145.717146 172.197517 
L 147.436438 178.317155 
L 149.15573 188.778747 
L 150.875023 213.069811 
L 152.594315 179.90735 
L 156.0329 213.069811 
L 157.752193 196.48858 
L 161.190778 196.48858 
L 162.91007 176.87865 
L 164.629362 172.197517 
L 166.348655 154.331009 
L 168.067947 186.026989 
L 169.78724 196.48858 
L 171.506532 186.026989 
L 173.225825 196.48858 
L 174.945117 179.90735 
L 176.66441 166.417058 
L 178.383702 179.90735 
L 180.102994 175.565397 
L 181.822287 107.932399 
L 183.541579 179.90735 
L 185.260872 181.685036 
L 186.980164 167.119179 
L 188.699457 173.238818 
L 190.418749 179.90735 
L 192.138041 146.932381 
L 193.857334 176.87865 
L 195.576626 158.570637 
L 197.295919 158.570637 
L 199.015211 152.587586 
L 200.734504 168.629728 
L 202.453796 148.109045 
L 204.173089 179.90735 
L 205.892381 175.565397 
L 207.611673 178.317155 
L 209.330966 167.855564 
L 211.050258 150.300261 
L 212.769551 170.308444 
L 214.488843 159.409346 
L 216.208136 140.440059 
L 217.927428 154.026092 
L 219.646721 145.840853 
L 221.366013 162.777227 
L 223.085305 146.744889 
L 224.804598 164.487684 
L 226.52389 164.487684 
L 228.243183 165.103805 
L 229.962475 158.570637 
L 233.40106 141.06641 
L 235.120353 139.957045 
L 236.839645 157.021289 
L 238.558937 165.103805 
L 240.27823 141.455089 
L 241.997522 157.776091 
L 243.716815 131.258292 
L 245.436107 131.191656 
L 247.1554 148.733668 
L 248.874692 131.325223 
L 250.593984 158.168136 
L 252.313277 154.331009 
L 254.032569 150.066258 
L 255.751862 156.302445 
L 257.471154 154.642214 
L 259.190447 154.026092 
L 260.909739 158.570637 
L 262.629032 157.776091 
L 264.348324 161.241032 
L 266.067616 157.393972 
L 267.786909 150.77944 
L 269.506201 147.122231 
L 271.225494 132.583692 
L 274.664079 153.146646 
L 276.383371 160.297419 
L 278.102664 157.393972 
L 279.821956 156.657588 
L 281.541248 139.838669 
L 283.260541 155.955466 
L 284.979833 157.393972 
L 286.699126 155.616286 
L 288.418418 157.393972 
L 290.137711 154.642214 
L 291.857003 158.168136 
L 293.576295 151.786006 
L 295.295588 156.657588 
L 297.01488 146.744889 
L 298.734173 158.570637 
L 300.453465 153.727213 
L 302.172758 150.066258 
L 303.89205 144.822969 
L 305.611343 146.744889 
L 307.330635 147.509249 
L 309.049927 144.822969 
L 310.76922 148.522575 
L 312.488512 146.195996 
L 314.207805 144.659802 
L 315.927097 145.840853 
L 317.64639 139.489011 
L 319.365682 145.666367 
L 321.084975 148.733668 
L 322.804267 135.204775 
L 324.523559 135.467267 
L 326.242852 128.078571 
L 327.962144 138.703331 
L 329.681437 140.19662 
L 331.400729 92.000947 
L 333.120022 116.346614 
L 334.839314 126.586066 
L 336.558607 124.961608 
L 338.277899 106.493893 
L 339.997191 119.394665 
L 341.716484 123.415481 
L 343.435776 116.597332 
L 345.155069 118.365541 
L 346.874361 130.288394 
L 348.593654 123.940855 
L 350.312946 108.872338 
L 352.032238 131.802239 
L 353.751531 107.332233 
L 355.470823 124.442604 
L 357.190116 129.495454 
L 358.909408 132.081744 
L 360.628701 129.02742 
L 362.347993 134.777186 
L 364.067286 128.296523 
L 365.786578 132.152437 
L 367.50587 114.478031 
L 369.225163 89.040872 
L 370.944455 123.858829 
L 372.663748 127.494942 
L 374.38304 130.101675 
L 376.102333 126.488377 
L 377.821625 126.056436 
L 379.540918 123.375815 
L 381.26021 115.477023 
L 382.979502 125.408176 
L 384.698795 130.414169 
L 386.418087 125.408176 
L 388.13738 112.426999 
L 389.856672 104.126688 
L 391.575965 122.946234 
L 393.295257 126.009197 
L 395.01455 118.856644 
L 396.733842 120.59767 
L 396.733842 120.59767 
" clip-path="url(#paf49165812)" style="fill: none; stroke: #1f77b4; stroke-width: 1.5; stroke-linecap: square"/>
   </g>
   <g id="patch_3">
    <path d="M 53.735 221.025665 
L 53.735 45.996875 
" style="fill: none; stroke: #000000; stroke-width: 0.8; stroke-linejoin: miter; stroke-linecap: square"/>
   </g>
   <g id="patch_4">
    <path d="M 413.06712 221.025665 
L 413.06712 45.996875 
" style="fill: none; stroke: #000000; stroke-width: 0.8; stroke-linejoin: miter; stroke-linecap: square"/>
   </g>
   <g id="patch_5">
    <path d="M 53.735 221.025665 
L 413.06712 221.025665 
" style="fill: none; stroke: #000000; stroke-width: 0.8; stroke-linejoin: miter; stroke-linecap: square"/>
   </g>
   <g id="patch_6">
    <path d="M 53.735 45.996875 
L 413.06712 45.996875 
" style="fill: none; stroke: #000000; stroke-width: 0.8; stroke-linejoin: miter; stroke-linecap: square"/>
   </g>
   <g id="text_29">
    <!-- Tate Gallery Acquisitions -->
    <g style="fill: #00008b" transform="translate(110.790123 25.996875)scale(0.2 -0.2)">
     <defs>
      <path id="DejaVuSans-54" d="M -19 4666 
L 3928 4666 
L 3928 4134 
L 2272 4134 
L 2272 0 
L 1638 0 
L 1638 4134 
L -19 4134 
L -19 4666 
z
" transform="scale(0.015625)"/>
      <path id="DejaVuSans-61" d="M 2194 1759 
Q 1497 1759 1228 1600 
Q 959 1441 959 1056 
Q 959 750 1161 570 
Q 1363 391 1709 391 
Q 2188 391 2477 730 
Q 2766 1069 2766 1631 
L 2766 1759 
L 2194 1759 
z
M 3341 1997 
L 3341 0 
L 2766 0 
L 2766 531 
Q 2569 213 2275 61 
Q 1981 -91 1556 -91 
Q 1019 -91 701 211 
Q 384 513 384 1019 
Q 384 1609 779 1909 
Q 1175 2209 1959 2209 
L 2766 2209 
L 2766 2266 
Q 2766 2663 2505 2880 
Q 2244 3097 1772 3097 
Q 1472 3097 1187 3025 
Q 903 2953 641 2809 
L 641 3341 
Q 956 3463 1253 3523 
Q 1550 3584 1831 3584 
Q 2591 3584 2966 3190 
Q 3341 2797 3341 1997 
z
" transform="scale(0.015625)"/>
      <path id="DejaVuSans-74" d="M 1172 4494 
L 1172 3500 
L 2356 3500 
L 2356 3053 
L 1172 3053 
L 1172 1153 
Q 1172 725 1289 603 
Q 1406 481 1766 481 
L 2356 481 
L 2356 0 
L 1766 0 
Q 1100 0 847 248 
Q 594 497 594 1153 
L 594 3053 
L 172 3053 
L 172 3500 
L 594 3500 
L 594 4494 
L 1172 4494 
z
" transform="scale(0.015625)"/>
      <path id="DejaVuSans-65" d="M 3597 1894 
L 3597 1613 
L 953 1613 
Q 991 1019 1311 708 
Q 1631 397 2203 397 
Q 2534 397 2845 478 
Q 3156 559 3463 722 
L 3463 178 
Q 3153 47 2828 -22 
Q 2503 -91 2169 -91 
Q 1331 -91 842 396 
Q 353 884 353 1716 
Q 353 2575 817 3079 
Q 1281 3584 2069 3584 
Q 2775 3584 3186 3129 
Q 3597 2675 3597 1894 
z
M 3022 2063 
Q 3016 2534 2758 2815 
Q 2500 3097 2075 3097 
Q 1594 3097 1305 2825 
Q 1016 2553 972 2059 
L 3022 2063 
z
" transform="scale(0.015625)"/>
      <path id="DejaVuSans-20" transform="scale(0.015625)"/>
      <path id="DejaVuSans-47" d="M 3809 666 
L 3809 1919 
L 2778 1919 
L 2778 2438 
L 4434 2438 
L 4434 434 
Q 4069 175 3628 42 
Q 3188 -91 2688 -91 
Q 1594 -91 976 548 
Q 359 1188 359 2328 
Q 359 3472 976 4111 
Q 1594 4750 2688 4750 
Q 3144 4750 3555 4637 
Q 3966 4525 4313 4306 
L 4313 3634 
Q 3963 3931 3569 4081 
Q 3175 4231 2741 4231 
Q 1884 4231 1454 3753 
Q 1025 3275 1025 2328 
Q 1025 1384 1454 906 
Q 1884 428 2741 428 
Q 3075 428 3337 486 
Q 3600 544 3809 666 
z
" transform="scale(0.015625)"/>
      <path id="DejaVuSans-6c" d="M 603 4863 
L 1178 4863 
L 1178 0 
L 603 0 
L 603 4863 
z
" transform="scale(0.015625)"/>
      <path id="DejaVuSans-72" d="M 2631 2963 
Q 2534 3019 2420 3045 
Q 2306 3072 2169 3072 
Q 1681 3072 1420 2755 
Q 1159 2438 1159 1844 
L 1159 0 
L 581 0 
L 581 3500 
L 1159 3500 
L 1159 2956 
Q 1341 3275 1631 3429 
Q 1922 3584 2338 3584 
Q 2397 3584 2469 3576 
Q 2541 3569 2628 3553 
L 2631 2963 
z
" transform="scale(0.015625)"/>
      <path id="DejaVuSans-79" d="M 2059 -325 
Q 1816 -950 1584 -1140 
Q 1353 -1331 966 -1331 
L 506 -1331 
L 506 -850 
L 844 -850 
Q 1081 -850 1212 -737 
Q 1344 -625 1503 -206 
L 1606 56 
L 191 3500 
L 800 3500 
L 1894 763 
L 2988 3500 
L 3597 3500 
L 2059 -325 
z
" transform="scale(0.015625)"/>
      <path id="DejaVuSans-41" d="M 2188 4044 
L 1331 1722 
L 3047 1722 
L 2188 4044 
z
M 1831 4666 
L 2547 4666 
L 4325 0 
L 3669 0 
L 3244 1197 
L 1141 1197 
L 716 0 
L 50 0 
L 1831 4666 
z
" transform="scale(0.015625)"/>
      <path id="DejaVuSans-63" d="M 3122 3366 
L 3122 2828 
Q 2878 2963 2633 3030 
Q 2388 3097 2138 3097 
Q 1578 3097 1268 2742 
Q 959 2388 959 1747 
Q 959 1106 1268 751 
Q 1578 397 2138 397 
Q 2388 397 2633 464 
Q 2878 531 3122 666 
L 3122 134 
Q 2881 22 2623 -34 
Q 2366 -91 2075 -91 
Q 1284 -91 818 406 
Q 353 903 353 1747 
Q 353 2603 823 3093 
Q 1294 3584 2113 3584 
Q 2378 3584 2631 3529 
Q 2884 3475 3122 3366 
z
" transform="scale(0.015625)"/>
      <path id="DejaVuSans-71" d="M 947 1747 
Q 947 1113 1208 752 
Q 1469 391 1925 391 
Q 2381 391 2643 752 
Q 2906 1113 2906 1747 
Q 2906 2381 2643 2742 
Q 2381 3103 1925 3103 
Q 1469 3103 1208 2742 
Q 947 2381 947 1747 
z
M 2906 525 
Q 2725 213 2448 61 
Q 2172 -91 1784 -91 
Q 1150 -91 751 415 
Q 353 922 353 1747 
Q 353 2572 751 3078 
Q 1150 3584 1784 3584 
Q 2172 3584 2448 3432 
Q 2725 3281 2906 2969 
L 2906 3500 
L 3481 3500 
L 3481 -1331 
L 2906 -1331 
L 2906 525 
z
" transform="scale(0.015625)"/>
      <path id="DejaVuSans-75" d="M 544 1381 
L 544 3500 
L 1119 3500 
L 1119 1403 
Q 1119 906 1312 657 
Q 1506 409 1894 409 
Q 2359 409 2629 706 
Q 2900 1003 2900 1516 
L 2900 3500 
L 3475 3500 
L 3475 0 
L 2900 0 
L 2900 538 
Q 2691 219 2414 64 
Q 2138 -91 1772 -91 
Q 1169 -91 856 284 
Q 544 659 544 1381 
z
M 1991 3584 
L 1991 3584 
z
" transform="scale(0.015625)"/>
      <path id="DejaVuSans-69" d="M 603 3500 
L 1178 3500 
L 1178 0 
L 603 0 
L 603 3500 
z
M 603 4863 
L 1178 4863 
L 1178 4134 
L 603 4134 
L 603 4863 
z
" transform="scale(0.015625)"/>
      <path id="DejaVuSans-73" d="M 2834 3397 
L 2834 2853 
Q 2591 2978 2328 3040 
Q 2066 3103 1784 3103 
Q 1356 3103 1142 2972 
Q 928 2841 928 2578 
Q 928 2378 1081 2264 
Q 1234 2150 1697 2047 
L 1894 2003 
Q 2506 1872 2764 1633 
Q 3022 1394 3022 966 
Q 3022 478 2636 193 
Q 2250 -91 1575 -91 
Q 1294 -91 989 -36 
Q 684 19 347 128 
L 347 722 
Q 666 556 975 473 
Q 1284 391 1588 391 
Q 1994 391 2212 530 
Q 2431 669 2431 922 
Q 2431 1156 2273 1281 
Q 2116 1406 1581 1522 
L 1381 1569 
Q 847 1681 609 1914 
Q 372 2147 372 2553 
Q 372 3047 722 3315 
Q 1072 3584 1716 3584 
Q 2034 3584 2315 3537 
Q 2597 3491 2834 3397 
z
" transform="scale(0.015625)"/>
      <path id="DejaVuSans-6f" d="M 1959 3097 
Q 1497 3097 1228 2736 
Q 959 2375 959 1747 
Q 959 1119 1226 758 
Q 1494 397 1959 397 
Q 2419 397 2687 759 
Q 2956 1122 2956 1747 
Q 2956 2369 2687 2733 
Q 2419 3097 1959 3097 
z
M 1959 3584 
Q 2709 3584 3137 3096 
Q 3566 2609 3566 1747 
Q 3566 888 3137 398 
Q 2709 -91 1959 -91 
Q 1206 -91 779 398 
Q 353 888 353 1747 
Q 353 2609 779 3096 
Q 1206 3584 1959 3584 
z
" transform="scale(0.015625)"/>
      <path id="DejaVuSans-6e" d="M 3513 2113 
L 3513 0 
L 2938 0 
L 2938 2094 
Q 2938 2591 2744 2837 
Q 2550 3084 2163 3084 
Q 1697 3084 1428 2787 
Q 1159 2491 1159 1978 
L 1159 0 
L 581 0 
L 581 3500 
L 1159 3500 
L 1159 2956 
Q 1366 3272 1645 3428 
Q 1925 3584 2291 3584 
Q 2894 3584 3203 3211 
Q 3513 2838 3513 2113 
z
" transform="scale(0.015625)"/>
     </defs>
     <use xlink:href="#DejaVuSans-54"/>
     <use xlink:href="#DejaVuSans-61" x="44.583984"/>
     <use xlink:href="#DejaVuSans-74" x="105.863281"/>
     <use xlink:href="#DejaVuSans-65" x="145.072266"/>
     <use xlink:href="#DejaVuSans-20" x="206.595703"/>
     <use xlink:href="#DejaVuSans-47" x="238.382812"/>
     <use xlink:href="#DejaVuSans-61" x="315.873047"/>
     <use xlink:href="#DejaVuSans-6c" x="377.152344"/>
     <use xlink:href="#DejaVuSans-6c" x="404.935547"/>
     <use xlink:href="#DejaVuSans-65" x="432.71875"/>
     <use xlink:href="#DejaVuSans-72" x="494.242188"/>
     <use xlink:href="#DejaVuSans-79" x="535.355469"/>
     <use xlink:href="#DejaVuSans-20" x="594.535156"/>
     <use xlink:href="#DejaVuSans-41" x="626.322266"/>
     <use xlink:href="#DejaVuSans-63" x="692.980469"/>
     <use xlink:href="#DejaVuSans-71" x="747.960938"/>
     <use xlink:href="#DejaVuSans-75" x="811.4375"/>
     <use xlink:href="#DejaVuSans-69" x="874.816406"/>
     <use xlink:href="#DejaVuSans-73" x="902.599609"/>
     <use xlink:href="#DejaVuSans-69" x="954.699219"/>
     <use xlink:href="#DejaVuSans-74" x="982.482422"/>
     <use xlink:href="#DejaVuSans-69" x="1021.691406"/>
     <use xlink:href="#DejaVuSans-6f" x="1049.474609"/>
     <use xlink:href="#DejaVuSans-6e" x="1110.65625"/>
     <use xlink:href="#DejaVuSans-73" x="1174.035156"/>
    </g>
   </g>
  </g>
 </g>
 <defs>
  <clipPath id="paf49165812">
   <rect x="53.735" y="45.996875" width="359.33212" height="175.02879"/>
  </clipPath>
 </defs>
</svg>
